<svg version="1.1" xmlns="http://www.w3.org/2000/svg" xmlns:xlink="http://www.w3.org/1999/xlink" width="68.96121" height="49.27523" viewBox="0,0,68.96121,49.27523"><g transform="translate(-205.44918,-155.35969)"><g data-paper-data="{&quot;isPaintingLayer&quot;:true}" fill-rule="nonzero" stroke-linejoin="miter" stroke-miterlimit="10" stroke-dasharray="" stroke-dashoffset="0" style="mix-blend-mode: normal"><path d="M268.64572,177.62447c-0.92876,-0.81288 -1.84009,-0.93151 -3.06608,-0.73016c-1.22319,0.20052 -2.42818,0.41834 -3.65982,0.56751c-1.88202,0.22828 -4.72589,-0.38678 -4.46289,-2.91162c0.21572,-2.07882 2.77059,-1.92616 4.30147,-1.86627c0.14417,0.00511 0.51073,0.00823 0.70431,0.01267c0.04618,-0.05004 0.4534,-0.19933 0.50755,-0.23088c0.22859,-0.13555 0.4509,-0.28362 0.65544,-0.45389c0.95943,-0.79495 -0.33869,-1.84457 -1.26903,-1.53998c-1.38892,0.45617 -2.35547,0.8545 -3.86048,0.70089c-0.88224,-0.08876 -1.8839,-0.17406 -2.66389,-0.64015c-1.69741,-1.01345 -0.3016,-2.62407 0.874,-3.23439c0.90894,-0.47072 2.06078,-0.81142 3.03022,-1.32356c-3.09373,-1.94822 -7.88853,-1.459 -9.93252,-4.80005c-0.88957,-1.45342 -1.55016,-3.41059 -0.24398,-4.82196c1.04568,-1.13207 2.97692,-1.06565 4.36636,-0.90071c1.55758,0.18427 3.10401,0.57234 4.55567,1.16985c2.20253,0.90495 4.11843,2.61725 5.8263,4.23826c4.348,4.12652 7.79272,9.4545 9.77212,15.1077c0.17031,0.4861 0.03474,0.87694 -0.24196,1.1371c0.00685,0.2022 -0.04302,0.41609 -0.16441,0.63468c-1.33309,2.39794 -3.42918,1.2853 -5.02837,-0.11503z" fill="#ffffff" stroke="#000000" stroke-width="0" stroke-linecap="butt"/><path d="M252.64899,163.91718c0.18131,-0.00004 0.36027,0.00762 0.53936,0.01764c3.36794,3.99827 5.50366,9.90612 5.50507,16.50415c0.00141,6.59724 -2.13101,12.50677 -5.49803,16.5057c-0.17909,0.00944 -0.35844,0.01783 -0.53936,0.01786c-6.89525,0.00147 -12.48571,-7.39462 -12.48765,-16.51962c-0.00195,-9.12579 5.58536,-16.52426 12.48061,-16.52573z" fill="#ffffff" stroke="none" stroke-width="0.27767" stroke-linecap="butt"/><path d="M243.92272,158.63822c4.37584,-0.00093 8.34233,2.44179 11.21371,6.38796c2.87216,3.94604 4.65039,9.39618 4.65168,15.41177c0.00128,6.01559 -1.77463,11.46727 -4.6451,15.41453c-2.8697,3.94804 -6.83476,6.39181 -11.21099,6.39274c-4.01779,0.00086 -7.68006,-2.07474 -10.47745,-5.46747c-0.77744,0.05813 -1.56611,0.09027 -2.36458,0.09044c-5.80321,0.00124 -11.09495,-1.58152 -15.10376,-4.18244c-0.23168,1.30485 -0.94723,2.69322 -2.10258,3.865c-2.35169,2.38611 -5.62376,2.97356 -7.30889,1.3125c-1.68566,-1.6608 -1.1453,-4.94146 1.20691,-7.32679c1.06361,-1.07934 2.31527,-1.78631 3.52368,-2.0881c-1.82587,-2.36682 -2.87098,-5.09407 -2.8716,-7.99908c-0.00059,-2.77134 0.94991,-5.38075 2.6218,-7.67183c-1.13061,-0.33249 -2.28584,-1.01257 -3.27771,-2.01955c-2.35284,-2.38328 -2.89472,-5.6641 -1.21003,-7.32562c1.68404,-1.66139 4.95635,-1.07573 7.30945,1.30873c1.05311,1.06793 1.74062,2.31462 2.03014,3.51533c4.01606,-2.63083 9.33766,-4.23281 15.17599,-4.23405c0.79847,-0.00017 1.58715,0.03151 2.36462,0.09009c2.79633,-3.39392 6.45693,-5.47265 10.47472,-5.47415z" fill="#ffffff" stroke="#000000" stroke-width="0.27767" stroke-linecap="butt"/><path d="M249.63372,170.14371c3.40912,-0.00073 6.17269,4.60935 6.1739,10.29587c0.00121,5.68717 -2.76001,10.29778 -6.16952,10.29851c-3.40964,0.00073 -2.91329,-4.6094 -2.9145,-10.29657c-0.00121,-5.68652 -0.49913,-10.29708 2.91012,-10.29781z" fill="#000000" stroke="#010101" stroke-width="0.27767" stroke-linecap="butt"/><path d="M230.6745,176.56516c-2.48538,-0.48739 -4.6401,-1.43736 -6.11031,-2.57779c-1.46994,-1.14184 -2.25708,-2.47302 -2.01179,-3.72385c0.24531,-1.25095 1.47692,-2.18624 3.26897,-2.68694c1.7923,-0.50197 4.14623,-0.56791 6.63161,-0.08051c2.48691,0.48769 4.64019,1.4375 6.11016,2.57922c1.47021,1.14043 2.25869,2.47228 2.01344,3.72284c-0.24529,1.25083 -1.47829,2.18585 -3.27063,2.68795c-1.79204,0.50069 -4.14455,0.56678 -6.63146,0.07908z" fill="#010101" stroke="#010101" stroke-width="0.27767" stroke-linecap="butt"/><path d="M230.33505,183.452c2.3869,-0.84933 4.72336,-1.13137 6.57044,-0.90106c1.84744,0.2317 3.20365,0.97487 3.63096,2.17577c0.42736,1.20101 -0.15457,2.63383 -1.44088,3.97909c-1.28598,1.34653 -3.2754,2.60392 -5.66229,3.45325c-2.3869,0.84933 -4.72328,1.1312 -6.5708,0.89966c-1.84695,-0.23035 -3.20343,-0.97384 -3.63065,-2.17449c-0.42732,-1.20089 0.15474,-2.63375 1.44056,-3.98037c1.28606,-1.34517 3.27576,-2.60251 5.66265,-3.45184z" fill="#010101" stroke="#010101" stroke-width="0.27767" stroke-linecap="butt"/><path d="M232.58003,186.58512c-0.00012,-0.57239 0.25353,-1.09182 0.66371,-1.46746c0.40979,-0.37589 0.97625,-0.60875 1.6015,-0.60888c0.62421,-0.00013 1.19142,0.23249 1.60072,0.6082c0.41113,0.37545 0.66421,0.89479 0.66433,1.46718c0.00012,0.57369 -0.25353,1.09248 -0.66371,1.46876c-0.40979,0.3755 -0.97625,0.60836 -1.60046,0.60849c-0.62525,0.00013 -1.19181,-0.23249 -1.60176,-0.60781c-0.41034,-0.37584 -0.66421,-0.89479 -0.66433,-1.46848z" fill="#ffffff" stroke="none" stroke-width="0.27767" stroke-linecap="butt"/><path d="M232.57701,172.42665c-0.00012,-0.57225 0.25353,-1.09248 0.66371,-1.46733c0.40979,-0.37733 0.97625,-0.60941 1.6015,-0.60954c0.62421,-0.00013 1.19142,0.23171 1.60072,0.60886c0.41113,0.37467 0.66421,0.89479 0.66433,1.46705c0.00012,0.57239 -0.25353,1.09248 -0.66371,1.46733c-0.40979,0.37746 -0.97625,0.60954 -1.60046,0.60967c-0.62525,0.00013 -1.19181,-0.23171 -1.60176,-0.60899c-0.41034,-0.37467 -0.66421,-0.89466 -0.66433,-1.46705z" fill="#ffffff" stroke="none" stroke-width="0.27767" stroke-linecap="butt"/><path d="M268.89996,182.36327c1.59859,-1.40101 3.69421,-2.51455 5.02832,-0.11718c0.12149,0.21853 0.17145,0.4324 0.16468,0.6346c0.27681,0.26004 0.41255,0.65082 0.24245,1.137c-1.97698,5.65404 -5.41943,10.98349 -9.76567,15.11186c-1.70717,1.62173 -3.62234,3.33486 -5.82449,4.24074c-1.4514,0.59812 -2.99767,0.98685 -4.55517,1.17179c-1.38937,0.16554 -3.32058,0.23279 -4.36675,-0.89884c-1.30678,-1.41081 -0.64703,-3.36827 0.24193,-4.82207c2.04257,-3.34193 6.83757,-2.85474 9.93047,-4.80428c-0.96966,-0.51172 -2.12164,-0.85194 -3.03079,-1.32227c-1.17586,-0.60981 -2.57235,-2.21984 -0.87537,-3.23401c0.77979,-0.46643 1.78141,-0.55215 2.66361,-0.64129c1.50495,-0.15426 2.47167,0.24367 3.86078,0.69925c0.93047,0.3042 2.22814,-0.74598 1.26837,-1.54053c-0.20462,-0.17018 -0.42698,-0.31815 -0.65563,-0.45361c-0.05417,-0.03153 -0.46145,-0.18064 -0.50765,-0.23066c-0.19358,0.00452 -0.56013,0.0078 -0.7043,0.01298c-1.53085,0.06054 -4.08566,0.21429 -4.30227,-1.86444c-0.26407,-2.52473 2.57953,-3.141 4.46165,-2.91353c1.2317,0.14864 2.43679,0.36595 3.66006,0.56594c1.22607,0.20083 2.13735,0.08181 3.06576,-0.73146z" data-paper-data="{&quot;index&quot;:null}" fill="#ffffff" stroke="none" stroke-width="0.27767" stroke-linecap="butt"/><path d="M223.14321,180.28875l23.73395,0.36008l-20.08247,0.18685" fill="none" stroke="none" stroke-width="0" stroke-linecap="round"/><path d="M246.6944,179.73602l-28.11544,0.37113" fill="none" stroke="#000000" stroke-width="1.5" stroke-linecap="round"/><path d="" fill="#ffffff" stroke="none" stroke-width="0.5" stroke-linecap="butt"/><path d="M234.07902,187.04144c-0.00009,-0.41421 0.33563,-0.75007 0.74984,-0.75016c0.25372,-0.00005 0.47805,0.12589 0.61381,0.31869c0.05033,0.0354 0.09611,0.07684 0.13628,0.12327c0.11378,0.13147 0.18263,0.3029 0.18267,0.49041c0.00009,0.41421 -0.33563,0.75007 -0.74984,0.75016c-0.25372,0.00005 -0.47805,-0.12589 -0.61381,-0.31869c-0.19286,-0.13568 -0.3189,-0.35995 -0.31896,-0.61368z" fill="#ffffff" stroke="none" stroke-width="0.5" stroke-linecap="butt"/><path d="M235.01167,187.42611c-0.41421,0.00009 -0.75007,-0.33563 -0.75016,-0.74984c-0.00009,-0.41421 0.33563,-0.75007 0.74984,-0.75016c0.41421,-0.00009 0.75007,0.33563 0.75016,0.74984c0.00009,0.41421 -0.33563,0.75007 -0.74984,0.75016z" fill="#000000" stroke="none" stroke-width="0.5" stroke-linecap="butt"/><path d="M234.82611,173.36839c-0.41421,0.00009 -0.75007,-0.33563 -0.75016,-0.74984c-0.00009,-0.41421 0.33563,-0.75007 0.74984,-0.75016c0.41421,-0.00009 0.75007,0.33563 0.75016,0.74984c0.00009,0.41421 -0.33563,0.75007 -0.74984,0.75016z" fill="#000000" stroke="none" stroke-width="0.5" stroke-linecap="butt"/></g></g></svg>