<svg version="1.1" xmlns="http://www.w3.org/2000/svg" xmlns:xlink="http://www.w3.org/1999/xlink" width="111.5" height="111.5" viewBox="0,0,111.5,111.5"><g transform="translate(-184.25,-124.25)"><g data-paper-data="{&quot;isPaintingLayer&quot;:true}" fill-rule="nonzero" stroke-linecap="butt" stroke-linejoin="miter" stroke-miterlimit="10" stroke-dasharray="" stroke-dashoffset="0" style="mix-blend-mode: normal"><path d="M185.5,180c0,-30.09952 24.40048,-54.5 54.5,-54.5c30.09952,0 54.5,24.40048 54.5,54.5c0,30.09952 -24.40048,54.5 -54.5,54.5c-30.09952,0 -54.5,-24.40048 -54.5,-54.5z" fill="#9966ff" stroke="#000000" stroke-width="2.5"/><path d="M198,180c0,-23.19596 18.80404,-42 42,-42c23.19596,0 42,18.80404 42,42c0,23.19596 -18.80404,42 -42,42c-23.19596,0 -42,-18.80404 -42,-42z" fill="#579a4f" stroke="none" stroke-width="0"/><path d="M208.5,180c0,-17.39697 14.10303,-31.5 31.5,-31.5c17.39697,0 31.5,14.10303 31.5,31.5c0,17.39697 -14.10303,31.5 -31.5,31.5c-17.39697,0 -31.5,-14.10303 -31.5,-31.5z" fill="#519198" stroke="none" stroke-width="0"/></g></g></svg>