<svg version="1.1" xmlns="http://www.w3.org/2000/svg" xmlns:xlink="http://www.w3.org/1999/xlink" width="236" height="228" viewBox="0,0,236,228"><g transform="translate(-122,-66)"><g data-paper-data="{&quot;isPaintingLayer&quot;:true}" stroke-miterlimit="10" stroke-dasharray="" stroke-dashoffset="0" style="mix-blend-mode: normal"><path d="M124.5,291.5v-223h231v223z" fill="#000000" fill-rule="nonzero" stroke="#ffffff" stroke-width="5" stroke-linecap="butt" stroke-linejoin="miter"/><g fill-rule="evenodd" stroke-width="2.5"><path d="M259.15361,99.95293c0.82677,-0.55118 2.20473,-0.27559 2.48032,0.82677l7.16538,29.48829c0,0 17.63786,12.9528 22.8741,22.04732c8.81893,15.15753 9.09452,27.55915 9.09452,27.55915c0,0 19.567,5.78742 22.8741,21.49614c3.3071,15.70872 -8.81893,45.4726 -60.63014,55.66949c-51.81121,10.19689 -93.42553,-3.85828 -112.99253,-35.27572c-19.567,-31.41743 11.29925,-68.89788 9.6457,-66.69315l-5.78742,-49.33088c-0.27559,-1.10237 1.10237,-1.92914 2.20473,-1.37796l33.34658,21.77173c0,0 12.40162,-4.68506 25.35442,-5.23624c7.71656,-0.55118 14.33076,0 20.66936,1.10237z" fill="#ffab19" stroke="#001026" stroke-linecap="butt" stroke-linejoin="miter"/><path d="M299.94116,180.97684c0,0 19.01582,4.96065 22.32291,20.66936c3.3071,15.70872 -9.9213,44.09465 -61.18132,54.01594c-66.69315,13.77958 -98.38618,-25.9056 -79.92154,-55.11831c18.46463,-29.48829 50.15766,-4.40946 73.30735,-6.06301c19.84259,-1.37796 22.04732,-18.74022 45.4726,-13.50399z" fill="#ffffff" stroke="none" stroke-linecap="butt" stroke-linejoin="miter"/><path d="M213.12983,210.46513c0,-1.10237 1.10237,-1.92914 2.20473,-1.65355c5.23624,1.92914 20.11818,6.33861 36.65367,7.44097c14.88194,0.82677 23.70087,0 27.83474,-0.82677c1.37796,-0.27559 2.48032,1.10237 1.92914,2.48032c-2.48032,7.44097 -12.9528,28.11034 -41.88991,26.45679c-25.07883,-2.75592 -27.55915,-20.39377 -26.73238,-33.89776z" fill="#ffffff" stroke="#001026" stroke-linecap="round" stroke-linejoin="round"/><path d="M350.65,184.00835c-12.9528,10.47248 -32.79539,10.74807 -32.79539,10.74807" fill="none" stroke="#001026" stroke-linecap="round" stroke-linejoin="round"/><path d="M347.06731,214.8746c-17.36227,1.37796 -28.11034,-3.85828 -28.11034,-3.85828" fill="none" stroke="#001026" stroke-linecap="round" stroke-linejoin="round"/><path d="M253.36619,187.31544c5.78742,0 11.85044,0.55118 12.12603,2.48032c0.27559,3.85828 -3.85828,11.57484 -8.26775,11.85044c-4.96065,0.55118 -16.53549,-6.33861 -16.53549,-10.74807c-0.27559,-3.3071 7.16538,-3.58269 12.67721,-3.58269z" fill="#001026" stroke="#001026" stroke-linecap="round" stroke-linejoin="round"/><path d="M129.35,183.18157c0,0 23.70087,7.71656 33.34658,16.2599" fill="none" stroke="#001026" stroke-linecap="round" stroke-linejoin="round"/><path d="M163.52335,209.08718c-11.85044,4.68506 -32.24421,1.65355 -32.24421,1.65355" fill="none" stroke="#001026" stroke-linecap="round" stroke-linejoin="round"/><g><path d="M285.88599,155.07124c7.99215,12.40162 8.26775,26.45679 0.55118,31.41743c-7.71656,4.96065 -20.39377,-0.82677 -28.66152,-13.22839c-7.99215,-12.40162 -8.26775,-26.45679 -0.55118,-31.41743c7.71656,-5.23624 20.66936,0.82677 28.66152,13.22839z" fill="#ffffff" stroke="#001026" stroke-linecap="round" stroke-linejoin="round"/><path d="M284.78362,170.77995c0,3.03151 -2.20473,5.51183 -4.96065,5.51183c-2.75592,0 -4.96065,-2.48032 -4.96065,-5.51183c0,-3.03151 2.20473,-5.51183 4.96065,-5.51183c2.75592,0 4.96065,2.48032 4.96065,5.51183" fill="#001026" stroke="none" stroke-linecap="butt" stroke-linejoin="miter"/></g><g><path d="M217.53929,162.7878c8.26775,12.12603 7.71656,27.00797 0.27559,32.24421c-9.09452,5.23624 -21.22055,1.37796 -29.48829,-10.74807c-8.54334,-12.12603 -9.09452,-27.83474 -0.55118,-33.89776c8.54334,-6.33861 21.49614,0.27559 29.76389,12.40162z" fill="#ffffff" stroke="#001026" stroke-linecap="round" stroke-linejoin="round"/><path d="M215.88574,178.77211c0,3.03151 -2.20473,5.51183 -4.96065,5.51183c-2.75592,0 -4.96065,-2.48032 -4.96065,-5.51183c0,-3.03151 2.20473,-5.51183 4.96065,-5.51183c2.75592,0.27559 4.96065,2.48032 4.96065,5.51183" fill="#001026" stroke="none" stroke-linecap="butt" stroke-linejoin="miter"/></g></g></g></g></svg>