<svg version="1.1" xmlns="http://www.w3.org/2000/svg" xmlns:xlink="http://www.w3.org/1999/xlink" width="127.553" height="127.53505" viewBox="0,0,127.553,127.53505"><g transform="translate(-176.2235,-116.23248)"><g data-paper-data="{&quot;isPaintingLayer&quot;:true}" fill="#ffffff" fill-rule="nonzero" stroke="#ffffff" stroke-width="1.15823" stroke-linecap="butt" stroke-linejoin="miter" stroke-miterlimit="10" stroke-dasharray="" stroke-dashoffset="0" style="mix-blend-mode: normal"><g><path d="M297.62767,181.9535l-111.89097,-0.36379l0.09281,-3.6556l111.89097,0.36379z"/><g><path d="M183.17471,179.90107c3.49107,0.01135 6.29847,0.91484 6.27047,2.018c-0.028,1.10316 -2.8808,1.98825 -6.37188,1.97689c-3.49107,-0.01135 -6.29847,-0.91484 -6.27047,-2.018c0.028,-1.10316 2.8808,-1.98825 6.37188,-1.97689z"/><path d="M183.74832,176.14273c3.49107,0.01135 6.29847,0.91484 6.27047,2.018c-0.028,1.10316 -2.88081,1.98825 -6.37188,1.97689c-3.49107,-0.01135 -6.29847,-0.91484 -6.27047,-2.018c0.028,-1.10316 2.8808,-1.98825 6.37188,-1.97689z"/></g><g><path d="M296.35311,179.86238c3.49107,0.01135 6.29847,0.91484 6.27047,2.018c-0.028,1.10316 -2.8808,1.98825 -6.37188,1.97689c-3.49107,-0.01135 -6.29847,-0.91484 -6.27047,-2.018c0.028,-1.10316 2.8808,-1.98825 6.37188,-1.97689z"/><path d="M296.92671,176.10404c3.49107,0.01135 6.29847,0.91484 6.27047,2.018c-0.028,1.10316 -2.88081,1.98825 -6.37188,1.97689c-3.49107,-0.01135 -6.29847,-0.91484 -6.27047,-2.018c0.028,-1.10316 2.8808,-1.98825 6.37188,-1.97689z"/></g></g><g><path d="M238.30094,237.63573l-0.13019,-111.89149l3.65597,0.07667l0.13019,111.89149z"/><g><path d="M239.84805,123.17482c0.00406,3.49109 -0.88702,6.30245 -1.99029,6.27932c-1.10327,-0.02313 -2.00094,-2.87199 -2.005,-6.36309c-0.00406,-3.49109 0.88702,-6.30245 1.99029,-6.27932c1.10327,0.02313 2.00094,2.87199 2.005,6.36309z"/><path d="M243.60889,123.73183c0.00406,3.49109 -0.88702,6.30245 -1.99029,6.27932c-1.10327,-0.02313 -2.00095,-2.872 -2.00501,-6.36309c-0.00406,-3.49109 0.88702,-6.30245 1.9903,-6.27932c1.10327,0.02313 2.00094,2.87199 2.005,6.36309z"/></g><g><path d="M240.38641,236.35195c0.00406,3.49109 -0.88703,6.30245 -1.9903,6.27932c-1.10327,-0.02313 -2.00094,-2.87199 -2.005,-6.36309c-0.00406,-3.49109 0.88702,-6.30245 1.99029,-6.27932c1.10327,0.02313 2.00095,2.87199 2.00501,6.36309z"/><path d="M244.14724,236.90895c0.00406,3.49109 -0.88702,6.30245 -1.99029,6.27932c-1.10327,-0.02313 -2.00094,-2.872 -2.005,-6.36309c-0.00406,-3.49109 0.88702,-6.30245 1.99029,-6.27932c1.10327,0.02313 2.00094,2.87199 2.005,6.36309z"/></g></g></g></g></svg>