<svg version="1.1" xmlns="http://www.w3.org/2000/svg" xmlns:xlink="http://www.w3.org/1999/xlink" width="89.99622" height="89.92525" viewBox="0,0,89.99622,89.92525"><g transform="translate(-195.00189,-135.03737)"><g data-paper-data="{&quot;isPaintingLayer&quot;:true}" fill="#ffffff" fill-rule="nonzero" stroke="#ffffff" stroke-width="1.15823" stroke-linecap="butt" stroke-linejoin="miter" stroke-miterlimit="10" stroke-dasharray="" stroke-dashoffset="0" style="mix-blend-mode: normal"><g><path d="M236.53153,220.53744v-78.64709h7.17978v78.64709z"/><g><path d="M239.83145,140.05958c0,2.45384 -1.75643,4.44309 -3.92308,4.44309c-2.16665,0 -3.92308,-1.98924 -3.92308,-4.44309c0,-2.45384 1.75642,-4.44309 3.92308,-4.44309c2.16665,0 3.92308,1.98924 3.92308,4.44309z"/><path d="M247.21606,140.39568c0,2.45384 -1.75643,4.44309 -3.92308,4.44309c-2.16665,0 -3.92308,-1.98925 -3.92308,-4.44309c0,-2.45384 1.75642,-4.44309 3.92308,-4.44309c2.16665,0 3.92308,1.98924 3.92308,4.44309z"/></g><g><path d="M240.6301,219.60433c0,2.45384 -1.75643,4.44309 -3.92308,4.44309c-2.16665,0 -3.92308,-1.98924 -3.92308,-4.44309c0,-2.45384 1.75642,-4.44309 3.92308,-4.44309c2.16665,0 3.92308,1.98924 3.92308,4.44309z"/><path d="M248.01471,219.94042c0,2.45384 -1.75643,4.44309 -3.92308,4.44309c-2.16665,0 -3.92308,-1.98925 -3.92308,-4.44309c0,-2.45384 1.75642,-4.44309 3.92308,-4.44309c2.16665,0 3.92308,1.98924 3.92308,4.44309z"/></g></g><g><path d="M280.50426,183.8366l-78.64384,-0.71448l0.06523,-7.17948l78.64384,0.71448z"/><g><path d="M200.0597,179.8057c2.45374,0.02229 4.42695,1.79672 4.40727,3.96328c-0.01968,2.16656 -2.0248,3.90485 -4.47855,3.88255c-2.45374,-0.02229 -4.42695,-1.79671 -4.40727,-3.96328c0.01968,-2.16656 2.0248,-3.90485 4.47855,-3.88255z"/><path d="M200.46287,172.42445c2.45374,0.02229 4.42695,1.79672 4.40727,3.96328c-0.01968,2.16656 -2.02481,3.90485 -4.47855,3.88255c-2.45374,-0.02229 -4.42695,-1.79671 -4.40727,-3.96328c0.01968,-2.16656 2.0248,-3.90485 4.47855,-3.88255z"/></g><g><path d="M279.60842,179.72972c2.45374,0.02229 4.42695,1.79672 4.40727,3.96328c-0.01968,2.16656 -2.0248,3.90485 -4.47855,3.88255c-2.45374,-0.02229 -4.42695,-1.79671 -4.40727,-3.96328c0.01968,-2.16656 2.0248,-3.90485 4.47855,-3.88255z"/><path d="M280.01158,172.34847c2.45374,0.02229 4.42695,1.79672 4.40727,3.96328c-0.01968,2.16656 -2.02481,3.90485 -4.47855,3.88255c-2.45374,-0.02229 -4.42695,-1.79671 -4.40727,-3.96328c0.01968,-2.16656 2.0248,-3.90485 4.47855,-3.88255z"/></g></g></g></g></svg>