<svg version="1.1" xmlns="http://www.w3.org/2000/svg" xmlns:xlink="http://www.w3.org/1999/xlink" width="96.989" height="79.50182" viewBox="0,0,96.989,79.50182"><g transform="translate(-191.5055,-140.24909)"><g data-paper-data="{&quot;isPaintingLayer&quot;:true}" fill="#ffffff" fill-rule="nonzero" stroke="#ffffff" stroke-width="1.15823" stroke-linecap="butt" stroke-linejoin="miter" stroke-miterlimit="10" stroke-dasharray="" stroke-dashoffset="0" style="mix-blend-mode: normal"><g><g><path d="M284.41063,218.5718v-72h-7.17978v72z"/><path d="M280.53077,144.89577c0,2.24645 -1.75643,4.06757 -3.92308,4.06757c-2.16665,0 -3.92307,-1.82112 -3.92307,-4.06757c0,-2.24645 1.75642,-4.06757 3.92307,-4.06757c2.16665,0 3.92308,1.82111 3.92308,4.06757z"/><path d="M287.91539,145.20346c0,2.24645 -1.75643,4.06757 -3.92308,4.06757c-2.16665,0 -3.92307,-1.82111 -3.92307,-4.06757c0,-2.24645 1.75642,-4.06757 3.92307,-4.06757c2.16665,0 3.92308,1.82111 3.92308,4.06757z"/></g><g><path d="M268.01063,218.70513v-72h-7.17978v72z"/><path d="M264.13077,145.02911c0,2.24645 -1.75643,4.06757 -3.92308,4.06757c-2.16665,0 -3.92307,-1.82111 -3.92307,-4.06757c0,-2.24645 1.75642,-4.06757 3.92307,-4.06757c2.16665,0 3.92308,1.82111 3.92308,4.06757z"/><path d="M271.51538,145.3368c0,2.24645 -1.75642,4.06757 -3.92308,4.06757c-2.16665,0 -3.92307,-1.82112 -3.92307,-4.06757c0,-2.24645 1.75642,-4.06757 3.92307,-4.06757c2.16666,0 3.92308,1.82111 3.92308,4.06757z"/></g><g><path d="M251.81063,218.9718v-72h-7.17978v72z"/><path d="M247.93077,145.29577c0,2.24645 -1.75643,4.06757 -3.92308,4.06757c-2.16665,0 -3.92308,-1.82111 -3.92308,-4.06757c0,-2.24645 1.75642,-4.06757 3.92308,-4.06757c2.16665,0 3.92308,1.82111 3.92308,4.06757z"/><path d="M255.31538,145.60347c0,2.24645 -1.75643,4.06757 -3.92308,4.06757c-2.16665,0 -3.92308,-1.82112 -3.92308,-4.06757c0,-2.24645 1.75642,-4.06757 3.92308,-4.06757c2.16665,0 3.92308,1.82111 3.92308,4.06757z"/></g><g><path d="M236.41063,218.7718v-72h-7.17978v72z"/><path d="M232.53077,145.09577c0,2.24645 -1.75643,4.06757 -3.92308,4.06757c-2.16665,0 -3.92307,-1.82112 -3.92307,-4.06757c0,-2.24645 1.75642,-4.06757 3.92307,-4.06757c2.16665,0 3.92308,1.82111 3.92308,4.06757z"/><path d="M239.91538,145.40346c0,2.24645 -1.75642,4.06757 -3.92308,4.06757c-2.16665,0 -3.92308,-1.82111 -3.92308,-4.06757c0,-2.24645 1.75642,-4.06757 3.92308,-4.06757c2.16665,0 3.92308,1.82111 3.92308,4.06757z"/></g><g><path d="M220.01063,218.90513v-72h-7.17978v72z"/><path d="M216.13077,145.22911c0,2.24645 -1.75643,4.06757 -3.92308,4.06757c-2.16665,0 -3.92307,-1.82111 -3.92307,-4.06757c0,-2.24645 1.75642,-4.06757 3.92307,-4.06757c2.16665,0 3.92308,1.82111 3.92308,4.06757z"/><path d="M223.51538,145.5368c0,2.24645 -1.75643,4.06757 -3.92308,4.06757c-2.16665,0 -3.92307,-1.82112 -3.92307,-4.06757c0,-2.24645 1.75642,-4.06757 3.92307,-4.06757c2.16665,0 3.92308,1.82111 3.92308,4.06757z"/></g><g><path d="M203.81063,219.1718v-72h-7.17978v72z"/><path d="M199.93077,145.49577c0,2.24645 -1.75643,4.06757 -3.92308,4.06757c-2.16665,0 -3.92308,-1.82111 -3.92308,-4.06757c0,-2.24645 1.75642,-4.06757 3.92308,-4.06757c2.16665,0 3.92308,1.82111 3.92308,4.06757z"/><path d="M207.31538,145.80346c0,2.24645 -1.75643,4.06757 -3.92308,4.06757c-2.16665,0 -3.92308,-1.82112 -3.92308,-4.06757c0,-2.24645 1.75642,-4.06757 3.92308,-4.06757c2.16665,0 3.92308,1.82111 3.92308,4.06757z"/></g></g></g></g></svg>