<svg version="1.1" xmlns="http://www.w3.org/2000/svg" xmlns:xlink="http://www.w3.org/1999/xlink" width="423.35749" height="134.58142" viewBox="0,0,423.35749,134.58142"><g transform="translate(-28.32125,-112.70929)"><g data-paper-data="{&quot;isPaintingLayer&quot;:true}" fill-rule="nonzero" stroke-linecap="butt" stroke-linejoin="miter" stroke-miterlimit="10" stroke-dasharray="" stroke-dashoffset="0" style="mix-blend-mode: normal"><path d="M111.54606,219.90903l-0.54784,-79.61256l10.95765,-2.27767v83.73643z" fill="#ff0505" stroke="#b4dd1c" stroke-width="0"/><path d="M364.06423,220.28429v-81.42867l8.76628,2.07499l1.64353,77.2486z" fill="#ff0000" stroke="#b4dd1c" stroke-width="0"/><path d="M171.78231,228.63995v-97.2799l10.40981,-1.84621v101.43386z" fill="#fef306" stroke="#b4dd1c" stroke-width="0"/><path d="M304.21648,228.63995v-97.2799h10.40981v97.2799z" fill="#fff300" stroke="#b4dd1c" stroke-width="0"/><path d="M31.32126,244.29071v-128.58142h417.35749v128.58142z" fill="none" stroke="#ffffff" stroke-width="6"/><path d="M439.5,180c0,29.54723 -89.31919,53.5 -199.5,53.5c-110.18081,0 -199.5,-23.95277 -199.5,-53.5c0,-29.54723 89.31919,-53.5 199.5,-53.5c110.18081,0 199.5,23.95277 199.5,53.5z" fill="none" stroke="#b4dd1c" stroke-width="4"/><path d="M225.56449,226.98037c0,-16.71327 0,-83.13131 0,-93.01112c0,-2.39383 3.23239,-4.76091 5.81198,-4.76091c3.56272,0 13.27109,0 18.88967,0c2.48457,0 4.1694,1.85413 4.1694,4.14495c0,9.6641 0,76.2776 0,93.42176c0,2.55969 -2.41151,4.01662 -3.96408,4.01662c-3.35495,0 -15.84918,0 -21.76419,0c-1.91687,0 -3.14278,-1.37952 -3.14278,-3.8113z" fill="#24b352" stroke="#b4dd1c" stroke-width="4"/><path d="M234.79511,228.67887v-97.2799h10.40981v97.2799z" fill="#000000" stroke="#b4dd1c" stroke-width="0"/></g></g></svg>