<svg version="1.1" xmlns="http://www.w3.org/2000/svg" xmlns:xlink="http://www.w3.org/1999/xlink" width="92.28921" height="120.21715" viewBox="0,0,92.28921,120.21715"><defs><linearGradient x1="271.72749" y1="121.2483" x2="271.72749" y2="164.09815" gradientUnits="userSpaceOnUse" id="color-1"><stop offset="0" stop-color="#fabd00"/><stop offset="1" stop-color="#fa0000"/></linearGradient></defs><g transform="translate(-193.55539,-120.19142)"><g data-paper-data="{&quot;isPaintingLayer&quot;:true}" stroke-miterlimit="10" stroke-dasharray="" stroke-dashoffset="0" style="mix-blend-mode: normal"><path d="M224.43997,212.51388c0.76238,0.38119 2.38244,1.23887 0.0953,4.47898c-2.28714,3.24012 -8.86266,3.9072 -9.62504,3.9072c-2.95422,0.09529 -6.57553,0.0953 -10.57802,-1.23887c-11.6263,-3.8119 -11.72159,-16.29587 -8.00499,-18.29712c3.62131,-2.00125 5.24137,5.71785 10.48272,10.38743c2.28714,2.09654 5.05077,2.85893 7.33792,3.33541c3.24012,0.57178 9.43446,-3.04951 10.29214,-2.57303z" fill="#ffab19" fill-rule="evenodd" stroke="#001026" stroke-width="1.2" stroke-linecap="round" stroke-linejoin="round"/><path d="M200.80619,204.79478c1.52477,2.57303 4.47898,6.19434 4.47898,6.19434c0,0 -3.526,-0.85768 -5.52725,0.76238c-1.62006,1.23887 -1.23887,3.33542 -1.04828,4.0025c-1.23887,-1.23887 -2.76364,-2.95422 -3.71661,-6.28964c-0.95297,-3.33542 0,-7.33791 1.90596,-7.90969c1.90596,-0.38119 2.38244,1.04827 3.9072,3.24012z" fill="#ffffff" fill-rule="evenodd" stroke="none" stroke-width="1" stroke-linecap="butt" stroke-linejoin="miter"/><path d="M229.20484,222.42483c-1.71535,1.14357 -7.6238,5.33666 -15.1523,7.7191l-0.38119,0.09529c-0.38119,0.09529 -0.57178,0.57179 -0.38119,0.95298c1.62006,2.28714 4.57428,6.86141 -0.66709,8.48147c-5.05077,1.62006 -14.48523,-11.81689 -10.48273,-15.3429c1.81065,-1.33417 3.43071,-0.66709 4.28839,-0.2859c0.47648,0.19059 0.95298,0.19059 1.42946,0.09529c1.14357,-0.38119 3.24012,-1.14357 4.86017,-2.00125c4.09779,-2.09654 5.05077,-2.95422 6.95673,-4.38369c1.90596,-1.42945 6.28963,-4.95548 9.81565,-1.90596c3.04952,2.57303 1.33416,5.43196 -0.2859,6.57554z" fill="#ffab19" fill-rule="evenodd" stroke="#001026" stroke-width="1.2" stroke-linecap="round" stroke-linejoin="round"/><path d="M244.35716,202.60294c0.47648,0.38119 6.28963,7.2426 8.19559,5.52725c2.28714,-2.00125 5.43196,-5.90844 8.86267,-2.76363c3.43071,3.14482 -3.04952,8.48147 -5.81315,9.91094c-6.57553,2.95422 -11.91219,-2.66833 -13.05576,-4.19309c-1.14357,-1.52477 -3.14482,-4.09779 -3.14482,-6.57553c0.09529,-2.66833 3.33542,-3.33541 4.95548,-1.90596z" fill="#000000" fill-rule="evenodd" stroke="#ffffff" stroke-width="1.2" stroke-linecap="round" stroke-linejoin="round"/><path d="M244.45245,224.80725c2.00125,1.81065 6.38493,5.52725 6.38493,5.52725c0,0 13.62754,-2.38245 13.62754,4.47898c0,4.09779 -6.86141,5.05077 -16.10528,4.19309c-0.57178,-0.09529 -1.14357,-0.2859 -1.62006,-0.66709c-2.09654,-1.81065 -8.10028,-7.14732 -11.91219,-10.86392c-5.62256,-5.52725 -10.29214,-9.14856 -10.29214,-9.14856c-8.10028,-7.90969 -1.52477,-11.2451 1.04827,-15.81938c2.38244,-3.9072 3.43071,-3.14482 9.14856,-2.00125c3.24012,0.47648 5.14606,0.76238 7.24261,0.66708c3.14482,-0.09529 2.57303,4.47898 1.71535,6.86141c0,0 -1.33416,3.526 -2.57303,5.33667c-1.52477,2.19184 -2.66833,3.62131 -3.8119,4.47898z" fill="#000000" fill-rule="evenodd" stroke="#ffffff" stroke-width="1.2" stroke-linecap="round" stroke-linejoin="round"/><path d="M236.44746,217.75524c0,0 -1.42946,-1.14357 -2.95422,-2.57303c-1.90596,-1.71535 -3.8119,-3.14483 -1.90595,-6.09905c1.71535,-2.28714 3.33541,-5.33666 7.6238,-2.57303c4.09779,2.57303 2.28713,4.95547 2.28713,4.95547c-2.09654,4.28839 -5.05076,6.28964 -5.05076,6.28964z" fill="#ffffff" fill-rule="evenodd" stroke="none" stroke-width="1" stroke-linecap="butt" stroke-linejoin="miter"/><path d="M222.05753,209.94085c2.09654,2.66833 5.33666,6.00374 1.23887,8.76737c-5.62256,3.14482 -10.29214,-6.38493 -11.24511,-9.72035c-0.85768,-2.95422 1.62006,-4.86017 3.71661,-6.48023c4.09779,-2.95422 7.5285,-5.62256 11.3404,-4.19309c4.76487,1.71535 1.33417,5.52725 -1.04827,7.2426c-1.42945,1.04828 -2.85893,2.19185 -3.9072,2.85893c-0.2859,0.47648 -0.38119,1.04828 -0.09529,1.52477z" fill="#ffab19" fill-rule="evenodd" stroke="#001026" stroke-width="1.2" stroke-linecap="round" stroke-linejoin="round"/><path d="M252.07625,145.71032c0.2859,-0.19059 0.76238,-0.0953 0.85768,0.28589l2.47774,10.19683c0,0 6.09904,4.47898 7.90969,7.6238c3.04951,5.24137 3.14482,9.52975 3.14482,9.52975c0,0 6.76612,2.00125 7.90969,7.43321c1.14357,5.43196 -3.04952,15.72409 -20.96545,19.25009c-17.91593,3.526 -32.30586,-1.33416 -39.07198,-12.19807c-6.76612,-10.86391 3.90719,-23.82438 3.33541,-23.06199l-2.00125,-17.05826c-0.09529,-0.38119 0.3812,-0.66708 0.76239,-0.47648l11.531,7.5285c0,0 4.28839,-1.62006 8.76737,-1.81065c2.66833,-0.19059 4.95548,0 7.14732,0.38119z" fill="#000000" fill-rule="evenodd" stroke="#ffffff" stroke-width="1.2" stroke-linecap="butt" stroke-linejoin="miter"/><path d="M266.18028,173.72781c0,0 6.57553,1.71535 7.71911,7.14731c1.14357,5.43196 -3.4307,15.2476 -21.15605,18.67831c-23.06199,4.76487 -34.02122,-8.95797 -27.63628,-19.05951c6.38493,-10.19683 17.34415,-1.52477 25.34914,-2.09654c6.86141,-0.47648 7.6238,-6.48024 15.72409,-4.66958z" fill="#ffffff" fill-rule="evenodd" stroke="none" stroke-width="1" stroke-linecap="butt" stroke-linejoin="miter"/><path d="M236.16157,183.92465c0,-0.38119 0.38119,-0.66708 0.76238,-0.57178c1.81065,0.66708 6.95673,2.19184 12.67457,2.57303c5.14606,0.2859 8.19559,0 9.62505,-0.2859c0.47649,-0.09529 0.85767,0.38119 0.66708,0.85768c-0.85767,2.57303 -4.47899,9.72034 -14.48523,9.14856c-8.67208,-0.95297 -9.52975,-7.05201 -9.24385,-11.72159z" fill="#ffffff" fill-rule="evenodd" stroke="#001026" stroke-width="1.2" stroke-linecap="round" stroke-linejoin="round"/><path d="M283.71502,174.77606c-4.47899,3.62131 -11.3404,3.7166 -11.3404,3.7166" fill="none" fill-rule="evenodd" stroke="#ffffff" stroke-width="1.2" stroke-linecap="round" stroke-linejoin="round"/><path d="M282.47616,185.44939c-6.00374,0.47648 -9.72035,-1.33417 -9.72035,-1.33417" fill="none" fill-rule="evenodd" stroke="#ffffff" stroke-width="1.2" stroke-linecap="round" stroke-linejoin="round"/><path d="M250.07501,175.91965c2.00125,0 4.0978,0.19059 4.19309,0.85768c0.09529,1.33417 -1.33417,4.0025 -2.85893,4.09779c-1.71535,0.19059 -5.71785,-2.19184 -5.71785,-3.7166c-0.09529,-1.14357 2.47774,-1.23887 4.38369,-1.23887z" fill="#001026" fill-rule="evenodd" stroke="#ffffff" stroke-width="1.2" stroke-linecap="round" stroke-linejoin="round"/><path d="M207.19113,174.49018c0,0 8.19559,2.66832 11.531,5.62256" fill="none" fill-rule="evenodd" stroke="#ffffff" stroke-width="1.2" stroke-linecap="round" stroke-linejoin="round"/><path d="M219.00802,183.44815c-4.09779,1.62006 -11.14981,0.57178 -11.14981,0.57178" fill="none" fill-rule="evenodd" stroke="#ffffff" stroke-width="1.2" stroke-linecap="round" stroke-linejoin="round"/><path d="M261.32012,164.76982c2.76363,4.28839 2.85893,9.14856 0.19059,10.86391c-2.66832,1.71535 -7.05202,-0.28589 -9.91094,-4.57428c-2.76363,-4.28839 -2.85893,-9.14856 -0.19059,-10.86392c2.66833,-1.81065 7.14732,0.2859 9.91094,4.57428z" fill="#ffad00" fill-rule="evenodd" stroke="#ffffff" stroke-width="1.2" stroke-linecap="round" stroke-linejoin="round"/><path d="M260.93893,170.20179c0,1.04828 -0.76238,1.90596 -1.71535,1.90596c-0.95297,0 -1.71535,-0.85768 -1.71535,-1.90596c0,-1.04828 0.76238,-1.90595 1.71535,-1.90595c0.95297,0 1.71535,0.85767 1.71535,1.90595" fill="#001026" fill-rule="evenodd" stroke="none" stroke-width="1" stroke-linecap="butt" stroke-linejoin="miter"/><path d="M282.54688,141.77047l-11.21813,8.64471l4.98741,0.15022l-17.22794,13.53276l8.06286,-11.68751l-3.87676,0.51569l7.56805,-9.97716l-5.60097,-0.07608l7.31331,-7.57001l-4.7406,-0.33575l6.37367,-13.71904l9.90513,5.05079l-6.36462,7.11393l6.63844,1.00631l-8.32908,6.32639l6.50922,1.02474" fill="url(#color-1)" fill-rule="nonzero" stroke="none" stroke-width="0.66342" stroke-linecap="butt" stroke-linejoin="miter"/><path d="M283.58285,141.56438l-9.49757,8.19483l5.20576,0.22146l-21.81561,15.95089l7.1328,-12.29298l-2.98113,0.17273l7.68211,-9.87605l-5.42034,-0.55033l6.67873,-7.57588l-4.09244,-0.06319l7.38653,-15.55443l11.65646,6.45267l-5.68236,6.43593l6.00883,1.16072l-7.69286,6.20648l5.43111,1.11717zM275.62059,150.76003l-4.99628,-0.15084l11.32259,-8.72501l-6.51399,-1.02564l8.32511,-6.32316l-6.53205,-0.99022l6.46936,-7.23088l-9.32971,-4.75739l-6.14498,13.22685l4.89634,0.34679l-7.2785,7.53388l5.52589,0.07507l-7.49049,9.87507l3.84255,-0.51093l-7.32849,10.62163l15.23264,-11.9652z" fill="#231f20" fill-rule="nonzero" stroke="none" stroke-width="0.66342" stroke-linecap="butt" stroke-linejoin="miter"/></g></g></svg>