<svg version="1.1" xmlns="http://www.w3.org/2000/svg" xmlns:xlink="http://www.w3.org/1999/xlink" width="70.60669" height="51.80425" viewBox="0,0,70.60669,51.80425"><g transform="translate(-205.44917,-154.26321)"><g data-paper-data="{&quot;isPaintingLayer&quot;:true}" fill-rule="nonzero" stroke-linejoin="miter" stroke-miterlimit="10" stroke-dasharray="" stroke-dashoffset="0" style="mix-blend-mode: normal"><path d="M272.26311,163.10901c-1.23179,0.07788 -1.96192,0.63601 -2.68977,1.6429c-0.72645,1.00433 -1.42779,2.0081 -2.19642,2.98196c-1.17428,1.48835 -3.62528,3.0563 -5.21815,1.07974c-1.31206,-1.62681 0.60803,-3.31912 1.73629,-4.35556c0.10588,-0.09798 0.36813,-0.35411 0.50859,-0.48739c-0.00251,-0.06805 0.18117,-0.46096 0.19735,-0.5215c0.06664,-0.25727 0.11999,-0.51899 0.1451,-0.78394c0.12039,-1.24014 -1.54028,-1.06989 -1.98563,-0.19813c-0.66385,1.3025 -1.06881,2.26629 -2.24477,3.218c-0.68844,0.55881 -1.45917,1.20424 -2.34101,1.4233c-1.91845,0.47732 -2.06334,-1.64904 -1.65948,-2.91055c0.31308,-0.97454 0.89011,-2.02803 1.21692,-3.0746c-3.56784,0.79826 -6.62463,4.52458 -10.42939,3.59489c-1.65542,-0.40415 -3.50343,-1.32706 -3.57148,-3.2489c-0.05602,-1.54009 1.36087,-2.85406 2.46283,-3.71629c1.23486,-0.96702 2.60545,-1.78159 4.05641,-2.3808c2.20033,-0.91029 4.76631,-1.04581 7.12038,-1.09948c5.99287,-0.13688 12.19169,1.2152 17.58017,3.83072c0.46341,0.22482 0.64269,0.59764 0.62975,0.97722c0.14737,0.13862 0.26273,0.32551 0.33067,0.56613c0.74427,2.6407 -1.52692,3.32863 -3.64835,3.46226z" fill="#ffffff" stroke="#000000" stroke-width="0" stroke-linecap="butt"/><path d="M252.64899,163.91718c0.18131,-0.00004 0.36027,0.00762 0.53936,0.01764c3.36794,3.99827 5.50366,9.90612 5.50507,16.50415c0.00141,6.59724 -2.13101,12.50677 -5.49803,16.5057c-0.17909,0.00944 -0.35844,0.01783 -0.53936,0.01786c-6.89525,0.00147 -12.48571,-7.39462 -12.48765,-16.51962c-0.00195,-9.12579 5.58536,-16.52426 12.48061,-16.52573z" fill="#ffffff" stroke="none" stroke-width="0.27767" stroke-linecap="butt"/><path d="M243.92272,158.63822c4.37584,-0.00093 8.34233,2.44179 11.21371,6.38796c2.87216,3.94604 4.65039,9.39618 4.65168,15.41177c0.00128,6.01559 -1.77463,11.46727 -4.6451,15.41453c-2.8697,3.94804 -6.83476,6.39181 -11.21099,6.39274c-4.01779,0.00086 -7.68006,-2.07474 -10.47745,-5.46747c-0.77744,0.05813 -1.56611,0.09027 -2.36458,0.09044c-5.80321,0.00124 -11.09495,-1.58152 -15.10376,-4.18244c-0.23168,1.30485 -0.94723,2.69322 -2.10258,3.865c-2.35169,2.38611 -5.62376,2.97356 -7.30889,1.3125c-1.68566,-1.6608 -1.1453,-4.94146 1.20691,-7.32679c1.06361,-1.07934 2.31527,-1.78631 3.52368,-2.0881c-1.82587,-2.36682 -2.87098,-5.09407 -2.8716,-7.99908c-0.00059,-2.77134 0.94991,-5.38075 2.6218,-7.67183c-1.13061,-0.33249 -2.28584,-1.01257 -3.27771,-2.01955c-2.35284,-2.38328 -2.89472,-5.6641 -1.21003,-7.32562c1.68404,-1.66139 4.95635,-1.07573 7.30945,1.30873c1.05311,1.06793 1.74062,2.31462 2.03014,3.51533c4.01606,-2.63083 9.33766,-4.23281 15.17599,-4.23405c0.79847,-0.00017 1.58715,0.03151 2.36462,0.09009c2.79633,-3.39392 6.45693,-5.47265 10.47472,-5.47415z" fill="#ffffff" stroke="#000000" stroke-width="0.27767" stroke-linecap="butt"/><path d="M249.63372,170.14371c3.40912,-0.00073 6.17269,4.60935 6.1739,10.29587c0.00121,5.68717 -2.76001,10.29778 -6.16952,10.29851c-3.40964,0.00073 -2.91329,-4.6094 -2.9145,-10.29657c-0.00121,-5.68652 -0.49913,-10.29708 2.91012,-10.29781z" fill="#000000" stroke="#010101" stroke-width="0.27767" stroke-linecap="butt"/><path d="M230.6745,176.56516c-2.48538,-0.48739 -4.6401,-1.43736 -6.11031,-2.57779c-1.46994,-1.14184 -2.25708,-2.47302 -2.01179,-3.72385c0.24531,-1.25095 1.47692,-2.18624 3.26897,-2.68694c1.7923,-0.50197 4.14623,-0.56791 6.63161,-0.08051c2.48691,0.48769 4.64019,1.4375 6.11016,2.57922c1.47021,1.14043 2.25869,2.47228 2.01344,3.72284c-0.24529,1.25083 -1.47829,2.18585 -3.27063,2.68795c-1.79204,0.50069 -4.14455,0.56678 -6.63146,0.07908z" fill="#010101" stroke="#010101" stroke-width="0.27767" stroke-linecap="butt"/><path d="M230.33505,183.452c2.3869,-0.84933 4.72336,-1.13137 6.57044,-0.90106c1.84744,0.2317 3.20365,0.97487 3.63096,2.17577c0.42736,1.20101 -0.15457,2.63383 -1.44088,3.97909c-1.28598,1.34653 -3.2754,2.60392 -5.66229,3.45325c-2.3869,0.84933 -4.72328,1.1312 -6.5708,0.89966c-1.84695,-0.23035 -3.20343,-0.97384 -3.63065,-2.17449c-0.42732,-1.20089 0.15474,-2.63375 1.44056,-3.98037c1.28606,-1.34517 3.27576,-2.60251 5.66265,-3.45184z" fill="#010101" stroke="#010101" stroke-width="0.27767" stroke-linecap="butt"/><path d="M232.58003,186.58512c-0.00012,-0.57239 0.25353,-1.09182 0.66371,-1.46746c0.40979,-0.37589 0.97625,-0.60875 1.6015,-0.60888c0.62421,-0.00013 1.19142,0.23249 1.60072,0.6082c0.41113,0.37545 0.66421,0.89479 0.66433,1.46718c0.00012,0.57369 -0.25353,1.09248 -0.66371,1.46876c-0.40979,0.3755 -0.97625,0.60836 -1.60046,0.60849c-0.62525,0.00013 -1.19181,-0.23249 -1.60176,-0.60781c-0.41034,-0.37584 -0.66421,-0.89479 -0.66433,-1.46848z" fill="#ffffff" stroke="none" stroke-width="0.27767" stroke-linecap="butt"/><path d="M232.57701,172.42665c-0.00012,-0.57225 0.25353,-1.09248 0.66371,-1.46733c0.40979,-0.37733 0.97625,-0.60941 1.6015,-0.60954c0.62421,-0.00013 1.19142,0.23171 1.60072,0.60886c0.41113,0.37467 0.66421,0.89479 0.66433,1.46705c0.00012,0.57239 -0.25353,1.09248 -0.66371,1.46733c-0.40979,0.37746 -0.97625,0.60954 -1.60046,0.60967c-0.62525,0.00013 -1.19181,-0.23171 -1.60176,-0.60899c-0.41034,-0.37467 -0.66421,-0.89466 -0.66433,-1.46705z" fill="#ffffff" stroke="none" stroke-width="0.27767" stroke-linecap="butt"/><path d="M271.46722,197.48058c2.11855,0.17341 4.37644,0.90383 3.58275,3.5301c-0.07243,0.23931 -0.19128,0.424 -0.34123,0.55982c0.00582,0.37975 -0.18041,0.74914 -0.64797,0.96524c-5.4366,2.51396 -11.6597,3.7495 -17.64894,3.5002c-2.35263,-0.09783 -4.91563,-0.28146 -7.09849,-1.23288c-1.43945,-0.62632 -2.79452,-1.46648 -4.01103,-2.45649c-1.08559,-0.88275 -2.47758,-2.22307 -2.39268,-3.76185c0.1041,-1.92021 1.9691,-2.8083 3.63182,-3.18131c3.82154,-0.85814 6.80786,2.92488 10.3601,3.78994c-0.30712,-1.05251 -0.86427,-2.11665 -1.15902,-3.09689c-0.38013,-1.26886 -0.19536,-3.39212 1.71379,-2.87889c0.87758,0.23556 1.63605,0.89534 2.31389,1.46697c1.15791,0.97361 1.54471,1.94484 2.184,3.25956c0.4289,0.87997 2.08609,1.08135 1.989,-0.16085c-0.02014,-0.26538 -0.06857,-0.52804 -0.13036,-0.78652c-0.01504,-0.06085 -0.19132,-0.45713 -0.18754,-0.52511c-0.13793,-0.1359 -0.39533,-0.39689 -0.49936,-0.49684c-1.10861,-1.05742 -2.99662,-2.78546 -1.65427,-4.38738c1.62968,-1.94632 4.05083,-0.33266 5.19698,1.17745c0.75023,0.9881 1.43261,2.00486 2.14009,3.02264c0.70882,1.02037 1.42836,1.59209 2.65846,1.69308z" data-paper-data="{&quot;index&quot;:null}" fill="#ffffff" stroke="none" stroke-width="0.27767" stroke-linecap="butt"/><path d="M223.14321,180.28875l23.73395,0.36008l-20.08247,0.18685" fill="none" stroke="none" stroke-width="0" stroke-linecap="round"/><path d="M218.57896,180.10715l28.11544,-0.37113" fill="none" stroke="#000000" stroke-width="1.5" stroke-linecap="round"/><path d="" fill="#ffffff" stroke="none" stroke-width="0.5" stroke-linecap="butt"/><path d="M234.07902,187.04144c-0.00009,-0.41421 0.33563,-0.75007 0.74984,-0.75016c0.25372,-0.00005 0.47805,0.12589 0.61381,0.31869c0.05033,0.0354 0.09611,0.07684 0.13628,0.12327c0.11378,0.13147 0.18263,0.3029 0.18267,0.49041c0.00009,0.41421 -0.33563,0.75007 -0.74984,0.75016c-0.25372,0.00005 -0.47805,-0.12589 -0.61381,-0.31869c-0.19286,-0.13568 -0.3189,-0.35995 -0.31896,-0.61368z" fill="#ffffff" stroke="none" stroke-width="0.5" stroke-linecap="butt"/><path d="M235.01167,187.42611c-0.41421,0.00009 -0.75007,-0.33563 -0.75016,-0.74984c-0.00009,-0.41421 0.33563,-0.75007 0.74984,-0.75016c0.41421,-0.00009 0.75007,0.33563 0.75016,0.74984c0.00009,0.41421 -0.33563,0.75007 -0.74984,0.75016z" fill="#000000" stroke="none" stroke-width="0.5" stroke-linecap="butt"/><path d="M234.82611,173.36839c-0.41421,0.00009 -0.75007,-0.33563 -0.75016,-0.74984c-0.00009,-0.41421 0.33563,-0.75007 0.74984,-0.75016c0.41421,-0.00009 0.75007,0.33563 0.75016,0.74984c0.00009,0.41421 -0.33563,0.75007 -0.74984,0.75016z" fill="#000000" stroke="none" stroke-width="0.5" stroke-linecap="butt"/></g></g></svg>